<svg id="Layer_1" data-name="Layer 1" xmlns="http://www.w3.org/2000/svg" viewBox="0 0 162.82 196.55"><defs><style>.cls-1{fill:#917864;}.cls-2{fill:#50b4c8;}</style></defs><title>knowgraphs-logo.inline</title><path class="cls-1" d="M178.89,51.78l-78-43.55-76.69,43,1.09,89,73.15,56.24,6.08-3.82,1-95.09ZM98.64,13.37l.68,34.91L61.25,68.79,31.11,51.89Zm-2.41,84.2.24,40L62.53,114.73l-.19-38ZM28.51,56,58.45,74.33l1,40.4L30.28,134.28ZM61,117.73l35.72,25.84.43,42.87-65-47.58ZM100.87,91,65.76,71.32l35.1-20.39L136,71.53Zm40-22.19L102.4,48.27l.68-34.9L171,52.11Z" transform="translate(-18.59 -2.72)"/><circle class="cls-2" cx="82.33" cy="7.61" r="7.61"/><circle class="cls-2" cx="7.61" cy="49.56" r="7.61"/><circle class="cls-2" cx="8.63" cy="135.5" r="7.61"/><circle class="cls-2" cx="155.21" cy="49.56" r="7.61"/><polygon class="cls-2" points="82.28 88.29 47.17 68.6 82.27 48.21 117.4 68.81 82.28 88.29"/><circle class="cls-2" cx="82.33" cy="188.94" r="7.61"/><polygon class="cls-2" points="77.64 94.84 77.88 134.89 43.94 112.01 43.75 74 77.64 94.84"/></svg>