<?xml version="1.0" encoding="utf-8"?>
<!-- Generator: Adobe Illustrator 23.1.1, SVG Export Plug-In . SVG Version: 6.00 Build 0)  -->
<svg version="1.1" xmlns="http://www.w3.org/2000/svg" xmlns:xlink="http://www.w3.org/1999/xlink" x="0px" y="0px"
	 viewBox="0 0 481.89 283.46" style="enable-background:new 0 0 481.89 283.46;" xml:space="preserve">
<style type="text/css">
	.st0{fill:#917864;}
	.st1{fill:#50B4C8;}
</style>
<g id="Ebene_1">
</g>
<g id="Ebene_2">
	<g>
		<path class="st0" d="M188.64,69.44L110.61,25.9L33.92,68.87l1.09,89.04l73.15,56.24l6.08-3.82l0.95-95.08L188.64,69.44z
			 M108.39,31.04l0.68,34.9L71,86.46l-30.14-16.9L108.39,31.04z M105.98,115.23l0.24,40.05L72.28,132.4l-0.19-38.01L105.98,115.23z
			 M38.26,73.65L68.2,92l1.01,40.4l-29.18,19.54L38.26,73.65z M70.72,135.4l35.72,25.84l0.43,42.87L41.9,156.53L70.72,135.4z
			 M110.62,108.68L75.51,88.99l35.1-20.39l35.13,20.6L110.62,108.68z M150.62,86.48l-38.47-20.55l0.68-34.9l67.91,38.74
			L150.62,86.48z"/>
		<g>
			<path class="st0" d="M159.94,136.37h9.59v24.96l7.46-2.59c7.08-2.51,12.4-7.76,12.4-20.39v-1.98h9.66v1.29
				c0,9.81-2.21,20.47-12.1,26.32l-1.29,0.76l6.47,11.26c3.19,5.71,6.01,6.7,10.96,6.7v8.6c-1.29,0.15-2.51,0.23-3.65,0.23
				c-7.53,0-12.93-4.72-16.89-12.17l-5.86-10.8l-7.15,2.74v19.86h-9.59V136.37z"/>
			<path class="st0" d="M222.17,152.27v38.88h-9.59v-54.78h10.42l25.79,39.79v-39.79h9.59v54.78h-10.35L222.17,152.27z"/>
			<path class="st0" d="M292.78,135.45c17.04,0,24.88,10.42,24.88,28.3s-7.84,28.3-24.88,28.3c-17.04,0-24.88-10.42-24.88-28.3
				S275.74,135.45,292.78,135.45z M292.86,143.75c-9.89,0-15.14,6.24-15.14,20.01s5.25,20.01,14.99,20.01
				c9.89,0,15.14-6.24,15.14-20.01S302.59,143.75,292.86,143.75z"/>
			<path class="st0" d="M358.44,154.63h-0.61l-10.04,36.67h-12.63l-13.24-54.93h10.2l9.89,42.3h0.3l11.11-42.3h10.12l11.11,42.3
				h0.38l9.51-42.3h9.74l-13.16,54.93h-12.63L358.44,154.63z"/>
			<path class="st1" d="M184.97,254.78c3.12,0,5.86-0.53,9.21-1.37v-19.55h9.59v25.56c-5.86,2.05-13.01,3.65-20.24,3.65
				c-17.96,0-26.25-10.73-26.25-28.53c0-16.36,9.81-28.07,28.91-28.07c5.02,0,10.8,0.68,15.52,1.83c0,0.15-0.08,8.52-0.08,8.67
				c-4.72-1.37-11.03-2.21-15.14-2.21c-9.66,0-19.4,5.48-19.4,20.01C167.09,248.31,174.32,254.78,184.97,254.78z"/>
			<path class="st1" d="M231.84,207.38c12.71,0,20.69,5.63,20.69,18.41c0,4.64-1.98,11.49-8.37,15.44l10.5,20.92h-10.8
				c-3.04-6.09-5.93-12.17-9.05-18.26c-0.99,0-2.59,0.08-4.41,0.08h-6.92v18.18h-9.59v-54.78H231.84z M223.47,235.68h9.36
				c7.15,0,9.89-5.4,9.89-10.2c0-4.11-2.74-9.81-10.12-9.81h-9.13V235.68z"/>
			<path class="st1" d="M275.58,207.3h13.31l18.72,54.86H297.5l-3.8-11.49h-22.82l-3.8,11.49h-10.12L275.58,207.3z M272.92,242.23
				h18.34l-8.67-26.7h-0.84L272.92,242.23z"/>
			<path class="st1" d="M323.52,245.8v16.36h-9.59v-54.78h20.24c11.56,0,18.49,8.83,18.49,19.25c0,10.35-6.92,19.17-18.18,19.17
				H323.52z M323.52,237.51h9.51c7,0,9.81-5.48,9.81-10.88c0-5.48-2.82-10.96-9.81-10.96h-9.51V237.51z"/>
			<path class="st1" d="M370.46,207.38v23.13h26.4v-23.13h9.59v54.78h-9.59V238.8h-26.4v23.36h-9.59v-54.78H370.46z"/>
			<path class="st1" d="M443.73,246.11c0-6.39-6.09-7.08-12.55-7.91c-7.38-0.99-15.37-3.58-15.37-15.6
				c0-13.24,10.65-16.13,21.07-16.13c5.02,0,9.66,0.61,14.07,1.06v8.52c-3.8-0.53-9.13-1.29-13.92-1.29
				c-7.61,0-11.41,2.36-11.41,7.61c0,5.71,5.1,6.54,10.88,7.46c7.99,1.29,17.04,2.59,17.04,15.9c0,12.1-8.52,17.35-20.85,17.35
				c-6.09,0-11.49-0.69-16.21-1.6v-8.6c5.71,1.06,10.8,1.9,15.44,1.9C439.62,254.78,443.73,251.89,443.73,246.11z"/>
		</g>
		<circle class="st1" cx="110.67" cy="28" r="7.61"/>
		<circle class="st1" cx="35.95" cy="69.95" r="7.61"/>
		<circle class="st1" cx="36.97" cy="155.89" r="7.61"/>
		<circle class="st1" cx="183.55" cy="69.95" r="7.61"/>
		<polygon class="st1" points="110.62,108.68 75.51,88.99 110.61,68.6 145.74,89.2 		"/>
		<circle class="st1" cx="110.67" cy="209.33" r="7.61"/>
		<polygon class="st1" points="105.98,115.23 106.22,155.28 72.28,132.4 72.09,94.39 		"/>
	</g>
</g>
</svg>
